<svg width="95" height="95" viewBox="0 0 95 95" fill="none" xmlns="http://www.w3.org/2000/svg">
<circle opacity="0.2" cx="47.2611" cy="47.2611" r="47.2611" fill="#1B1C31"/>
<path d="M57.77 60H36.242V55.262L47.236 43.946C49.6893 41.3393 50.916 39.1927 50.916 37.506C50.916 36.2487 50.5173 35.2367 49.72 34.47C48.9533 33.7033 47.9567 33.32 46.73 33.32C44.2767 33.32 42.4827 34.5773 41.348 37.092L36.012 33.964C36.9933 31.7867 38.4193 30.1153 40.29 28.95C42.1913 27.754 44.3073 27.156 46.638 27.156C49.5513 27.156 52.0507 28.076 54.136 29.916C56.2213 31.7253 57.264 34.1787 57.264 37.276C57.264 40.6187 55.5007 44.0533 51.974 47.58L45.672 53.882H57.77V60Z" fill="#E8F2FF"/>
</svg>
