<svg width="95" height="95" viewBox="0 0 95 95" fill="none" xmlns="http://www.w3.org/2000/svg">
<circle opacity="0.2" cx="47.2611" cy="47.2611" r="47.2611" fill="#1B1C31"/>
<path d="M56.264 33.044L50.238 40.864C52.4767 41.508 54.2553 42.6427 55.574 44.268C56.9233 45.8933 57.598 47.8253 57.598 50.064C57.598 53.376 56.4787 55.9673 54.24 57.838C52.0627 59.7087 49.3487 60.644 46.098 60.644C43.5527 60.644 41.2987 60.0613 39.336 58.896C37.3733 57.7 35.9473 56.0133 35.058 53.836L40.486 50.708C41.2527 53.192 43.1233 54.434 46.098 54.434C47.7233 54.434 48.9807 54.0507 49.87 53.284C50.79 52.4867 51.25 51.4133 51.25 50.064C51.25 48.7453 50.79 47.6873 49.87 46.89C48.9807 46.0927 47.7233 45.694 46.098 45.694H44.718L42.28 42.014L48.628 33.734H36.024V27.8H56.264V33.044Z" fill="#E8F2FF"/>
</svg>
