<svg width="734" height="281" viewBox="0 0 734 281" fill="none" xmlns="http://www.w3.org/2000/svg">
<path d="M702 2.41593e-06C706.202 2.23224e-06 710.363 0.827707 714.246 2.43586C718.128 4.04401 721.656 6.40111 724.627 9.37258C727.599 12.3441 729.956 15.8717 731.564 19.7541C733.172 23.6365 734 27.7977 734 32L702 32L702 2.41593e-06Z" fill="#E8F2FF"/>
<path d="M678 26C682.202 26 686.363 26.8277 690.246 28.4359C694.128 30.044 697.656 32.4011 700.627 35.3726C703.599 38.3441 705.956 41.8717 707.564 45.7541C709.172 49.6365 710 53.7977 710 58L678 58L678 26Z" fill="#E8F2FF"/>
<circle cx="371" cy="234" r="47" fill="white"/>
<path d="M391 234.5L360.25 252.254L360.25 216.746L391 234.5Z" fill="#FF7F5C"/>
<g opacity="0.3">
<path d="M0 0H4V4H0V0Z" fill="#C4C4C4"/>
<path d="M24 0H28V4H24V0Z" fill="#C4C4C4"/>
<path d="M48 0H52V4H48V0Z" fill="#C4C4C4"/>
<path d="M72 0H76V4H72V0Z" fill="#C4C4C4"/>
<path d="M96 0H100V4H96V0Z" fill="#C4C4C4"/>
<path d="M120 0H124V4H120V0Z" fill="#C4C4C4"/>
<path d="M144 0H148V4H144V0Z" fill="#C4C4C4"/>
<path d="M0 24H4V28H0V24Z" fill="#C4C4C4"/>
<path d="M24 24H28V28H24V24Z" fill="#C4C4C4"/>
<path d="M48 24H52V28H48V24Z" fill="#C4C4C4"/>
<path d="M72 24H76V28H72V24Z" fill="#C4C4C4"/>
<path d="M96 24H100V28H96V24Z" fill="#C4C4C4"/>
<path d="M120 24H124V28H120V24Z" fill="#C4C4C4"/>
<path d="M144 24H148V28H144V24Z" fill="#C4C4C4"/>
<path d="M0 48H4V52H0V48Z" fill="#C4C4C4"/>
<path d="M24 48H28V52H24V48Z" fill="#C4C4C4"/>
<path d="M48 48H52V52H48V48Z" fill="#C4C4C4"/>
<path d="M72 48H76V52H72V48Z" fill="#C4C4C4"/>
<path d="M96 48H100V52H96V48Z" fill="#C4C4C4"/>
<path d="M120 48H124V52H120V48Z" fill="#C4C4C4"/>
<path d="M144 48H148V52H144V48Z" fill="#C4C4C4"/>
<path d="M0 72H4V76H0V72Z" fill="#C4C4C4"/>
<path d="M24 72H28V76H24V72Z" fill="#C4C4C4"/>
<path d="M48 72H52V76H48V72Z" fill="#C4C4C4"/>
<path d="M72 72H76V76H72V72Z" fill="#C4C4C4"/>
<path d="M96 72H100V76H96V72Z" fill="#C4C4C4"/>
<path d="M120 72H124V76H120V72Z" fill="#C4C4C4"/>
<path d="M144 72H148V76H144V72Z" fill="#C4C4C4"/>
<path d="M0 96H4V100H0V96Z" fill="#C4C4C4"/>
<path d="M24 96H28V100H24V96Z" fill="#C4C4C4"/>
<path d="M48 96H52V100H48V96Z" fill="#C4C4C4"/>
<path d="M72 96H76V100H72V96Z" fill="#C4C4C4"/>
<path d="M96 96H100V100H96V96Z" fill="#C4C4C4"/>
<path d="M120 96H124V100H120V96Z" fill="#C4C4C4"/>
<path d="M144 96H148V100H144V96Z" fill="#C4C4C4"/>
<path d="M0 120H4V124H0V120Z" fill="#C4C4C4"/>
<path d="M24 120H28V124H24V120Z" fill="#C4C4C4"/>
<path d="M48 120H52V124H48V120Z" fill="#C4C4C4"/>
<path d="M72 120H76V124H72V120Z" fill="#C4C4C4"/>
<path d="M96 120H100V124H96V120Z" fill="#C4C4C4"/>
<path d="M120 120H124V124H120V120Z" fill="#C4C4C4"/>
<path d="M144 120H148V124H144V120Z" fill="#C4C4C4"/>
<path d="M0 144H4V148H0V144Z" fill="#C4C4C4"/>
<path d="M24 144H28V148H24V144Z" fill="#C4C4C4"/>
<path d="M48 144H52V148H48V144Z" fill="#C4C4C4"/>
<path d="M72 144H76V148H72V144Z" fill="#C4C4C4"/>
<path d="M96 144H100V148H96V144Z" fill="#C4C4C4"/>
<path d="M120 144H124V148H120V144Z" fill="#C4C4C4"/>
<path d="M144 144H148V148H144V144Z" fill="#C4C4C4"/>
</g>
</svg>
