<svg width="380" height="259" viewBox="0 0 380 259" fill="none" xmlns="http://www.w3.org/2000/svg">
<rect y="27" width="379.325" height="231.649" rx="10.1222" fill="url(#paint0_linear_0_642)"/>
<mask id="mask0_0_642" style="mask-type:alpha" maskUnits="userSpaceOnUse" x="0" y="27" width="380" height="232">
<rect x="0.000488281" y="27" width="379.325" height="231.649" rx="10.1346" fill="#50449C"/>
</mask>
<g mask="url(#mask0_0_642)">
<path d="M193.324 135.243C124.987 89.6844 116.516 40.3902 118.967 19.761H388.983V280.366H299.219C296.608 259.767 276.641 229.664 259.871 203.266C243.053 176.792 219.421 152.641 193.324 135.243Z" fill="#491FEF"/>
<path d="M352.788 273.85C393.327 208.989 284.259 77.4318 224.658 19.7609L201.493 -2.68005H421.559V273.85C381.745 300.876 312.25 338.712 352.788 273.85Z" fill="#D9F9FD"/>
<path d="M398.394 182.639C399.552 140.942 281.605 50.4061 222.486 10.3502L388.984 -6.29956L423.007 89.9794C414.32 138.24 397.236 224.336 398.394 182.639Z" fill="#00E4FF"/>
</g>
<path d="M314.85 79.1762L318.053 65.1118H321.257L318.835 79.1762H314.85Z" fill="black"/>
<path d="M332.977 65.2681C332.196 64.9556 330.946 64.6431 329.383 64.6431C325.476 64.6431 322.664 66.5965 322.664 69.4093C322.664 71.519 324.617 72.6129 326.18 73.3161C327.742 74.0193 328.211 74.4881 328.211 75.1132C328.211 76.0508 326.961 76.5197 325.867 76.5197C324.304 76.5197 323.445 76.2852 322.117 75.7383L321.57 75.5039L321.023 78.7074C321.96 79.0981 323.679 79.4888 325.476 79.4888C329.618 79.4888 332.352 77.5354 332.352 74.5663C332.352 72.9254 331.337 71.6753 328.993 70.6595C327.586 69.9563 326.727 69.5656 326.727 68.8624C326.727 68.2373 327.43 67.6122 328.993 67.6122C330.321 67.6122 331.258 67.8466 331.962 68.1592L332.352 68.3154L332.977 65.2681Z" fill="black"/>
<path d="M332.977 65.2681C332.196 64.9556 330.946 64.6431 329.383 64.6431C325.476 64.6431 323.367 66.5965 323.367 69.4093C323.367 71.519 324.617 72.6129 326.18 73.3161C327.742 74.0193 328.211 74.4881 328.211 75.1132C328.211 76.0508 326.961 76.5197 325.867 76.5197C324.304 76.5197 323.445 76.2852 322.117 75.7383L321.57 75.5039L321.023 78.7074C321.96 79.0981 323.679 79.4888 325.476 79.4888C329.618 79.4888 332.352 77.5354 332.352 74.5663C332.352 72.9254 331.337 71.6753 328.993 70.6595C327.586 69.9563 326.727 69.5656 326.727 68.8624C326.727 68.2373 327.43 67.6122 328.993 67.6122C330.321 67.6122 331.258 67.8466 331.962 68.1592L332.352 68.3154L332.977 65.2681Z" fill="black"/>
<path fill-rule="evenodd" clip-rule="evenodd" d="M338.602 66.1276C338.993 65.19 339.696 65.1118 340.634 65.1118H342.743L346.025 79.1762H342.274L341.806 76.8321H336.805L336.024 79.1762H331.804L338.602 66.1276ZM339.461 70.3469C339.461 70.3469 338.21 73.7067 337.898 74.488V74.5662H341.18C341.023 73.7848 340.242 70.2687 340.242 70.2687L340.008 68.9404C339.773 69.4874 339.461 70.3469 339.461 70.3469Z" fill="black"/>
<path d="M307.663 74.9571L307.272 72.9256C306.569 70.5815 304.303 68.0031 301.802 66.7529L305.319 79.2546H309.538L315.867 65.1902H312.429L307.663 74.9571Z" fill="black"/>
<path d="M296.8 65.1118L297.504 65.2681C302.504 66.4401 305.942 69.4093 307.27 72.9254L305.864 66.2838C305.63 65.3462 304.926 65.1118 304.067 65.1118H296.8V65.1118Z" fill="#FFBC00"/>
<path d="M296.8 65.1118C301.801 66.2838 305.942 69.3311 307.27 72.8472L305.942 67.2996C305.708 66.362 304.926 65.815 304.067 65.815L296.8 65.1118Z" fill="#F7981D"/>
<path d="M296.8 65.1118C301.801 66.2838 305.942 69.3311 307.27 72.8472L306.333 69.7999C306.098 68.8623 305.786 67.9247 304.692 67.534L296.8 65.1118Z" fill="#ED7C00"/>
<path d="M37.2317 145.346V134.818L35.2685 135.252V134.244L37.7181 133.185H38.7084V145.346H37.2317ZM41.0844 145.346V144.321C41.9068 143.673 42.6828 143.018 43.4125 142.358C44.1538 141.686 44.8082 141.026 45.3757 140.377C45.9548 139.729 46.4066 139.092 46.7309 138.466C47.0668 137.841 47.2347 137.239 47.2347 136.659C47.2347 136.231 47.1594 135.831 47.0088 135.461C46.8699 135.09 46.6382 134.795 46.3139 134.575C45.9896 134.343 45.5495 134.227 44.9935 134.227C44.4607 134.227 44.0148 134.349 43.6557 134.592C43.2967 134.824 43.0245 135.136 42.8392 135.53C42.6654 135.924 42.5786 136.347 42.5786 136.798H41.1713C41.1713 135.999 41.3392 135.316 41.6751 134.748C42.011 134.169 42.4685 133.729 43.0476 133.428C43.6268 133.127 44.2812 132.976 45.0109 132.976C46.088 132.976 46.9683 133.283 47.6517 133.897C48.3466 134.499 48.6941 135.403 48.6941 136.607C48.6941 137.325 48.5146 138.038 48.1555 138.744C47.7964 139.439 47.3389 140.117 46.783 140.777C46.227 141.426 45.6305 142.034 44.9935 142.601C44.368 143.169 43.7831 143.678 43.2388 144.13H49.1111V145.346H41.0844ZM55.0053 145.555C54.2293 145.555 53.5286 145.416 52.9031 145.138C52.2777 144.848 51.7738 144.42 51.3916 143.852C51.021 143.285 50.8241 142.578 50.8009 141.733H52.2777C52.2893 142.427 52.5325 143.03 53.0074 143.539C53.4822 144.037 54.1482 144.286 55.0053 144.286C55.8624 144.286 56.5053 144.049 56.9338 143.574C57.3739 143.099 57.594 142.526 57.594 141.854C57.594 141.287 57.455 140.823 57.177 140.464C56.9106 140.105 56.5458 139.839 56.0825 139.665C55.6308 139.491 55.1327 139.404 54.5884 139.404H53.6849V138.171H54.5884C55.376 138.171 55.9898 137.991 56.43 137.632C56.8817 137.273 57.1075 136.769 57.1075 136.121C57.1075 135.576 56.928 135.131 56.569 134.783C56.2215 134.424 55.7003 134.244 55.0053 134.244C54.3336 134.244 53.795 134.447 53.3896 134.853C52.9842 135.246 52.7583 135.744 52.712 136.347H51.2352C51.27 135.687 51.4437 135.102 51.7565 134.592C52.0808 134.082 52.5209 133.689 53.0769 133.411C53.6328 133.121 54.2756 132.976 55.0053 132.976C55.7929 132.976 56.4473 133.115 56.9686 133.393C57.5013 133.671 57.9009 134.042 58.1673 134.505C58.4453 134.968 58.5843 135.478 58.5843 136.034C58.5843 136.648 58.4164 137.21 58.0805 137.719C57.7446 138.217 57.2407 138.553 56.569 138.727C57.2871 138.877 57.8836 139.219 58.3584 139.752C58.8333 140.285 59.0708 140.985 59.0708 141.854C59.0708 142.526 58.9144 143.146 58.6017 143.713C58.3005 144.269 57.8488 144.715 57.2465 145.051C56.6442 145.387 55.8972 145.555 55.0053 145.555ZM66.9391 145.346V142.74H60.7715V141.611L66.6785 133.185H68.3811V141.455H70.188V142.74H68.3811V145.346H66.9391ZM62.3872 141.455H67.0086V134.8L62.3872 141.455ZM108.271 145.555C107.437 145.555 106.713 145.404 106.099 145.103C105.486 144.802 104.993 144.391 104.623 143.869C104.264 143.337 104.044 142.734 103.962 142.063H105.387C105.526 142.734 105.85 143.279 106.36 143.696C106.87 144.101 107.513 144.304 108.289 144.304C108.868 144.304 109.366 144.171 109.783 143.904C110.2 143.626 110.518 143.256 110.738 142.792C110.97 142.329 111.086 141.814 111.086 141.246C111.086 140.343 110.831 139.613 110.321 139.057C109.812 138.501 109.151 138.223 108.341 138.223C107.669 138.223 107.096 138.374 106.621 138.675C106.146 138.976 105.798 139.37 105.578 139.856H104.188L105.231 133.185H111.607V134.453H106.36L105.648 138.154C105.926 137.818 106.308 137.54 106.794 137.32C107.292 137.1 107.86 136.99 108.497 136.99C109.296 136.99 109.991 137.175 110.582 137.545C111.184 137.916 111.653 138.42 111.989 139.057C112.325 139.694 112.493 140.418 112.493 141.229C112.493 142.005 112.325 142.723 111.989 143.383C111.665 144.043 111.184 144.57 110.547 144.964C109.922 145.358 109.163 145.555 108.271 145.555ZM119.152 145.555C118.272 145.555 117.531 145.393 116.929 145.068C116.326 144.732 115.84 144.286 115.469 143.731C115.11 143.175 114.844 142.555 114.67 141.872C114.508 141.177 114.427 140.47 114.427 139.752C114.427 138.408 114.612 137.233 114.983 136.225C115.353 135.206 115.886 134.412 116.581 133.845C117.288 133.266 118.139 132.976 119.135 132.976C119.899 132.976 120.554 133.127 121.098 133.428C121.643 133.729 122.071 134.134 122.384 134.644C122.708 135.142 122.911 135.698 122.992 136.312H121.637C121.509 135.652 121.226 135.142 120.785 134.783C120.345 134.424 119.789 134.244 119.118 134.244C118.203 134.244 117.432 134.679 116.807 135.548C116.193 136.405 115.863 137.748 115.817 139.578C116.095 139.034 116.535 138.565 117.137 138.171C117.751 137.766 118.486 137.563 119.343 137.563C120.038 137.563 120.687 137.725 121.289 138.049C121.903 138.374 122.401 138.831 122.783 139.422C123.166 140.001 123.357 140.684 123.357 141.472C123.357 142.155 123.189 142.81 122.853 143.435C122.517 144.061 122.031 144.57 121.394 144.964C120.768 145.358 120.021 145.555 119.152 145.555ZM119.048 144.269C119.592 144.269 120.079 144.153 120.508 143.922C120.936 143.69 121.272 143.371 121.515 142.966C121.758 142.549 121.88 142.074 121.88 141.541C121.88 140.719 121.608 140.065 121.063 139.578C120.531 139.08 119.859 138.831 119.048 138.831C118.504 138.831 118.017 138.959 117.589 139.213C117.16 139.457 116.818 139.787 116.564 140.204C116.32 140.621 116.199 141.072 116.199 141.559C116.199 142.08 116.32 142.549 116.564 142.966C116.818 143.371 117.16 143.69 117.589 143.922C118.017 144.153 118.504 144.269 119.048 144.269ZM126.267 145.346L131.097 134.436H124.426V133.185H132.591V134.279L127.813 145.346H126.267ZM138.248 145.555C137.449 145.555 136.731 145.41 136.094 145.12C135.457 144.819 134.953 144.408 134.582 143.887C134.223 143.354 134.044 142.74 134.044 142.045C134.044 141.304 134.258 140.638 134.686 140.047C135.127 139.457 135.706 139.063 136.424 138.866C135.764 138.646 135.254 138.293 134.895 137.806C134.536 137.32 134.356 136.787 134.356 136.208C134.356 135.617 134.513 135.078 134.825 134.592C135.138 134.094 135.584 133.7 136.163 133.411C136.742 133.121 137.437 132.976 138.248 132.976C139.059 132.976 139.754 133.121 140.333 133.411C140.912 133.7 141.358 134.094 141.671 134.592C141.983 135.078 142.14 135.617 142.14 136.208C142.14 136.775 141.96 137.308 141.601 137.806C141.242 138.293 140.732 138.646 140.072 138.866C140.79 139.063 141.364 139.457 141.792 140.047C142.232 140.638 142.452 141.304 142.452 142.045C142.452 142.74 142.267 143.354 141.896 143.887C141.537 144.408 141.039 144.819 140.402 145.12C139.765 145.41 139.047 145.555 138.248 145.555ZM138.248 138.345C138.989 138.345 139.574 138.159 140.003 137.789C140.443 137.406 140.663 136.908 140.663 136.295C140.663 135.611 140.449 135.096 140.02 134.748C139.592 134.401 139.001 134.227 138.248 134.227C137.495 134.227 136.904 134.401 136.476 134.748C136.059 135.096 135.85 135.611 135.85 136.295C135.85 136.908 136.065 137.406 136.493 137.789C136.922 138.159 137.507 138.345 138.248 138.345ZM138.248 144.269C139.163 144.269 139.846 144.061 140.298 143.644C140.761 143.215 140.993 142.653 140.993 141.958C140.993 141.171 140.744 140.574 140.246 140.169C139.748 139.764 139.082 139.561 138.248 139.561C137.414 139.561 136.748 139.764 136.25 140.169C135.752 140.574 135.503 141.171 135.503 141.958C135.503 142.653 135.729 143.215 136.181 143.644C136.644 144.061 137.333 144.269 138.248 144.269ZM176.44 145.555C175.675 145.555 175.021 145.404 174.476 145.103C173.932 144.802 173.498 144.402 173.173 143.904C172.861 143.395 172.669 142.833 172.6 142.219H173.955C174.071 142.879 174.349 143.389 174.789 143.748C175.229 144.107 175.785 144.286 176.457 144.286C177.383 144.286 178.154 143.858 178.768 143.001C179.381 142.132 179.712 140.783 179.758 138.953C179.48 139.497 179.034 139.972 178.42 140.377C177.818 140.771 177.088 140.968 176.231 140.968C175.548 140.968 174.899 140.806 174.285 140.482C173.671 140.157 173.173 139.706 172.791 139.126C172.409 138.536 172.218 137.847 172.218 137.059C172.218 136.376 172.386 135.721 172.722 135.096C173.069 134.47 173.555 133.961 174.181 133.567C174.806 133.173 175.553 132.976 176.422 132.976C177.302 132.976 178.044 133.144 178.646 133.48C179.248 133.804 179.729 134.244 180.088 134.8C180.459 135.356 180.725 135.982 180.887 136.677C181.061 137.36 181.148 138.061 181.148 138.779C181.148 140.123 180.962 141.304 180.592 142.323C180.221 143.331 179.683 144.124 178.976 144.703C178.281 145.271 177.436 145.555 176.44 145.555ZM176.526 139.7C177.071 139.7 177.557 139.578 177.986 139.335C178.414 139.08 178.756 138.744 179.011 138.327C179.266 137.91 179.393 137.459 179.393 136.972C179.393 136.451 179.266 135.988 179.011 135.582C178.756 135.165 178.414 134.841 177.986 134.609C177.557 134.378 177.071 134.262 176.526 134.262C175.982 134.262 175.496 134.378 175.067 134.609C174.638 134.841 174.303 135.165 174.059 135.582C173.816 135.988 173.694 136.457 173.694 136.99C173.694 137.812 173.961 138.472 174.494 138.97C175.038 139.457 175.716 139.7 176.526 139.7ZM188.113 145.555C187.035 145.555 186.103 145.294 185.315 144.773C184.539 144.24 183.943 143.505 183.526 142.566C183.109 141.617 182.9 140.516 182.9 139.265C182.9 138.015 183.109 136.92 183.526 135.982C183.943 135.032 184.539 134.297 185.315 133.775C186.103 133.243 187.035 132.976 188.113 132.976C189.19 132.976 190.116 133.243 190.892 133.775C191.668 134.297 192.265 135.032 192.682 135.982C193.099 136.92 193.307 138.015 193.307 139.265C193.307 140.516 193.099 141.617 192.682 142.566C192.265 143.505 191.668 144.24 190.892 144.773C190.116 145.294 189.19 145.555 188.113 145.555ZM188.113 144.269C188.819 144.269 189.45 144.072 190.006 143.678C190.574 143.273 191.014 142.7 191.327 141.958C191.651 141.206 191.813 140.308 191.813 139.265C191.813 138.223 191.651 137.331 191.327 136.59C191.014 135.849 190.574 135.281 190.006 134.887C189.45 134.482 188.819 134.279 188.113 134.279C187.394 134.279 186.757 134.482 186.201 134.887C185.646 135.281 185.205 135.849 184.881 136.59C184.557 137.331 184.395 138.223 184.395 139.265C184.395 140.308 184.557 141.206 184.881 141.958C185.205 142.7 185.646 143.273 186.201 143.678C186.757 144.072 187.394 144.269 188.113 144.269ZM196.615 145.346V134.818L194.651 135.252V134.244L197.101 133.185H198.091V145.346H196.615ZM200.467 145.346V144.321C201.29 143.673 202.066 143.018 202.795 142.358C203.537 141.686 204.191 141.026 204.759 140.377C205.338 139.729 205.789 139.092 206.114 138.466C206.45 137.841 206.618 137.239 206.618 136.659C206.618 136.231 206.542 135.831 206.392 135.461C206.253 135.09 206.021 134.795 205.697 134.575C205.372 134.343 204.932 134.227 204.376 134.227C203.844 134.227 203.398 134.349 203.039 134.592C202.68 134.824 202.407 135.136 202.222 135.53C202.048 135.924 201.961 136.347 201.961 136.798H200.554C200.554 135.999 200.722 135.316 201.058 134.748C201.394 134.169 201.851 133.729 202.43 133.428C203.01 133.127 203.664 132.976 204.394 132.976C205.471 132.976 206.351 133.283 207.035 133.897C207.729 134.499 208.077 135.403 208.077 136.607C208.077 137.325 207.897 138.038 207.538 138.744C207.179 139.439 206.722 140.117 206.166 140.777C205.61 141.426 205.013 142.034 204.376 142.601C203.751 143.169 203.166 143.678 202.622 144.13H208.494V145.346H200.467ZM246.574 145.555C245.798 145.555 245.097 145.416 244.471 145.138C243.846 144.848 243.342 144.42 242.96 143.852C242.589 143.285 242.392 142.578 242.369 141.733H243.846C243.857 142.427 244.101 143.03 244.576 143.539C245.05 144.037 245.716 144.286 246.574 144.286C247.431 144.286 248.073 144.049 248.502 143.574C248.942 143.099 249.162 142.526 249.162 141.854C249.162 141.287 249.023 140.823 248.745 140.464C248.479 140.105 248.114 139.839 247.651 139.665C247.199 139.491 246.701 139.404 246.157 139.404H245.253V138.171H246.157C246.944 138.171 247.558 137.991 247.998 137.632C248.45 137.273 248.676 136.769 248.676 136.121C248.676 135.576 248.496 135.131 248.137 134.783C247.79 134.424 247.268 134.244 246.574 134.244C245.902 134.244 245.363 134.447 244.958 134.853C244.552 135.246 244.327 135.744 244.28 136.347H242.803C242.838 135.687 243.012 135.102 243.325 134.592C243.649 134.082 244.089 133.689 244.645 133.411C245.201 133.121 245.844 132.976 246.574 132.976C247.361 132.976 248.016 133.115 248.537 133.393C249.07 133.671 249.469 134.042 249.736 134.505C250.014 134.968 250.153 135.478 250.153 136.034C250.153 136.648 249.985 137.21 249.649 137.719C249.313 138.217 248.809 138.553 248.137 138.727C248.855 138.877 249.452 139.219 249.927 139.752C250.402 140.285 250.639 140.985 250.639 141.854C250.639 142.526 250.483 143.146 250.17 143.713C249.869 144.269 249.417 144.715 248.815 145.051C248.212 145.387 247.465 145.555 246.574 145.555ZM257.135 145.555C256.301 145.555 255.577 145.404 254.963 145.103C254.349 144.802 253.857 144.391 253.486 143.869C253.127 143.337 252.907 142.734 252.826 142.063H254.251C254.39 142.734 254.714 143.279 255.224 143.696C255.733 144.101 256.376 144.304 257.152 144.304C257.731 144.304 258.229 144.171 258.646 143.904C259.063 143.626 259.382 143.256 259.602 142.792C259.834 142.329 259.949 141.814 259.949 141.246C259.949 140.343 259.695 139.613 259.185 139.057C258.675 138.501 258.015 138.223 257.204 138.223C256.533 138.223 255.959 138.374 255.484 138.675C255.009 138.976 254.662 139.37 254.442 139.856H253.052L254.094 133.185H260.471V134.453H255.224L254.511 138.154C254.789 137.818 255.172 137.54 255.658 137.32C256.156 137.1 256.724 136.99 257.361 136.99C258.16 136.99 258.855 137.175 259.445 137.545C260.048 137.916 260.517 138.42 260.853 139.057C261.189 139.694 261.357 140.418 261.357 141.229C261.357 142.005 261.189 142.723 260.853 143.383C260.528 144.043 260.048 144.57 259.411 144.964C258.785 145.358 258.027 145.555 257.135 145.555ZM269.145 145.346V142.74H262.978V141.611L268.885 133.185H270.587V141.455H272.394V142.74H270.587V145.346H269.145ZM264.593 141.455H269.215V134.8L264.593 141.455ZM279.664 145.346V142.74H273.497V141.611L279.404 133.185H281.106V141.455H282.913V142.74H281.106V145.346H279.664ZM275.113 141.455H279.734V134.8L275.113 141.455Z" fill="white"/>
<path d="M35.9287 78.7473V66.5858H40.081C41.5056 66.5858 42.6754 66.8406 43.5904 67.3502C44.517 67.8482 45.2004 68.5548 45.6405 69.4698C46.0922 70.3732 46.3181 71.4388 46.3181 72.6665C46.3181 73.8943 46.0922 74.9657 45.6405 75.8807C45.2004 76.7841 44.517 77.4906 43.5904 78.0002C42.6754 78.4983 41.5056 78.7473 40.081 78.7473H35.9287ZM38.1525 76.8362H39.9767C40.996 76.8362 41.801 76.6741 42.3917 76.3498C42.9824 76.0139 43.4051 75.539 43.6599 74.9251C43.9147 74.2997 44.0422 73.5468 44.0422 72.6665C44.0422 71.7979 43.9147 71.0508 43.6599 70.4253C43.4051 69.7999 42.9824 69.3192 42.3917 68.9833C41.801 68.6474 40.996 68.4795 39.9767 68.4795H38.1525V76.8362ZM52.4152 78.9558C51.5465 78.9558 50.7763 78.7705 50.1045 78.3998C49.4327 78.0292 48.9057 77.508 48.5235 76.8362C48.1412 76.1644 47.9501 75.3884 47.9501 74.5081C47.9501 73.6163 48.1355 72.8229 48.5061 72.128C48.8883 71.433 49.4095 70.8944 50.0697 70.5122C50.7415 70.1184 51.5291 69.9215 52.4325 69.9215C53.2781 69.9215 54.0251 70.1068 54.6737 70.4775C55.3224 70.8481 55.8262 71.3577 56.1852 72.0063C56.5559 72.6434 56.7412 73.3557 56.7412 74.1433C56.7412 74.2707 56.7354 74.4039 56.7238 74.5429C56.7238 74.6819 56.718 74.8267 56.7065 74.9772H50.1566C50.2029 75.649 50.4346 76.176 50.8515 76.5582C51.2801 76.9405 51.7955 77.1316 52.3978 77.1316C52.8495 77.1316 53.2259 77.0331 53.5271 76.8362C53.8398 76.6277 54.0715 76.3613 54.222 76.037H56.4806C56.3184 76.5814 56.0463 77.0794 55.664 77.5312C55.2934 77.9713 54.8301 78.3188 54.2741 78.5736C53.7298 78.8284 53.1101 78.9558 52.4152 78.9558ZM52.4325 71.7284C51.8882 71.7284 51.4075 71.8847 50.9905 72.1974C50.5736 72.4986 50.3072 72.9619 50.1913 73.5873H54.4826C54.4479 73.0198 54.2394 72.5681 53.8572 72.2322C53.475 71.8963 53.0001 71.7284 52.4325 71.7284ZM63.7194 78.9558C63.0708 78.9558 62.5033 78.8342 62.0168 78.591C61.5304 78.3477 61.1366 78.006 60.8354 77.5659L60.5922 78.7473H58.6116V66.2383H60.8354V71.3635C61.1134 70.9813 61.4782 70.6454 61.9299 70.3558C62.3932 70.0663 62.9897 69.9215 63.7194 69.9215C64.5302 69.9215 65.2541 70.1184 65.8911 70.5122C66.5282 70.906 67.032 71.4446 67.4026 72.128C67.7733 72.8113 67.9586 73.5873 67.9586 74.456C67.9586 75.3247 67.7733 76.1007 67.4026 76.7841C67.032 77.4559 66.5282 77.9887 65.8911 78.3825C65.2541 78.7647 64.5302 78.9558 63.7194 78.9558ZM63.2503 77.0099C63.9569 77.0099 64.5418 76.7725 65.0051 76.2976C65.4684 75.8228 65.7 75.2089 65.7 74.456C65.7 73.7032 65.4684 73.0835 65.0051 72.597C64.5418 72.1106 63.9569 71.8674 63.2503 71.8674C62.5322 71.8674 61.9415 72.1106 61.4782 72.597C61.0265 73.0719 60.8007 73.6858 60.8007 74.4387C60.8007 75.1915 61.0265 75.8112 61.4782 76.2976C61.9415 76.7725 62.5322 77.0099 63.2503 77.0099ZM71.144 68.7922C70.7386 68.7922 70.4027 68.6706 70.1363 68.4274C69.8815 68.1841 69.7541 67.8772 69.7541 67.5066C69.7541 67.1359 69.8815 66.8348 70.1363 66.6031C70.4027 66.3599 70.7386 66.2383 71.144 66.2383C71.5493 66.2383 71.8794 66.3599 72.1343 66.6031C72.4006 66.8348 72.5338 67.1359 72.5338 67.5066C72.5338 67.8772 72.4006 68.1841 72.1343 68.4274C71.8794 68.6706 71.5493 68.7922 71.144 68.7922ZM70.032 78.7473V70.13H72.2559V78.7473H70.032ZM78.4166 78.7473C77.5132 78.7473 76.7893 78.5272 76.2449 78.0871C75.7005 77.647 75.4283 76.8652 75.4283 75.7417V71.989H73.9516V70.13H75.4283L75.6889 67.8193H77.6521V70.13H79.9802V71.989H77.6521V75.759C77.6521 76.176 77.739 76.4656 77.9128 76.6277C78.0981 76.7783 78.4108 76.8536 78.8509 76.8536H79.9281V78.7473H78.4166ZM91.5889 78.9558C90.3612 78.9558 89.3072 78.6952 88.4269 78.174C87.5467 77.6412 86.8691 76.9057 86.3942 75.9675C85.9193 75.0178 85.6819 73.9232 85.6819 72.6839C85.6819 71.4446 85.9193 70.3501 86.3942 69.4003C86.8691 68.4505 87.5467 67.7093 88.4269 67.1765C89.3072 66.6437 90.3612 66.3773 91.5889 66.3773C93.0483 66.3773 94.2413 66.7421 95.1679 67.4718C96.1061 68.1899 96.691 69.2034 96.9226 70.5122H94.473C94.3224 69.852 93.9981 69.3366 93.5 68.966C93.0136 68.5837 92.365 68.3926 91.5542 68.3926C90.4307 68.3926 89.5504 68.7748 88.9134 69.5393C88.2764 70.3037 87.9578 71.3519 87.9578 72.6839C87.9578 74.0159 88.2764 75.0641 88.9134 75.8285C89.5504 76.5814 90.4307 76.9578 91.5542 76.9578C92.365 76.9578 93.0136 76.7841 93.5 76.4366C93.9981 76.0776 94.3224 75.5853 94.473 74.9599H96.9226C96.691 76.2108 96.1061 77.1895 95.1679 77.896C94.2413 78.6025 93.0483 78.9558 91.5889 78.9558ZM101.81 78.9558C101.069 78.9558 100.461 78.84 99.9857 78.6083C99.5108 78.3651 99.1576 78.0466 98.9259 77.6528C98.6943 77.259 98.5784 76.8246 98.5784 76.3498C98.5784 75.5506 98.8912 74.9019 99.5166 74.4039C100.142 73.9059 101.08 73.6568 102.331 73.6568H104.52V73.4484C104.52 72.8576 104.352 72.4233 104.016 72.1453C103.68 71.8674 103.264 71.7284 102.765 71.7284C102.314 71.7284 101.92 71.8384 101.584 72.0585C101.248 72.2669 101.04 72.5797 100.959 72.9966H98.7869C98.8448 72.3712 99.0533 71.8268 99.4124 71.3635C99.783 70.9002 100.258 70.547 100.837 70.3037C101.416 70.0489 102.065 69.9215 102.783 69.9215C104.011 69.9215 104.978 70.2284 105.684 70.8423C106.391 71.4562 106.744 72.3249 106.744 73.4484V78.7473H104.85L104.642 77.3574C104.387 77.8207 104.028 78.2029 103.565 78.5041C103.113 78.8052 102.528 78.9558 101.81 78.9558ZM102.314 77.2184C102.951 77.2184 103.443 77.0099 103.791 76.593C104.15 76.176 104.375 75.6606 104.468 75.0467H102.574C101.984 75.0467 101.561 75.1568 101.306 75.3768C101.051 75.5853 100.924 75.8459 100.924 76.1586C100.924 76.4945 101.051 76.7551 101.306 76.9405C101.561 77.1258 101.897 77.2184 102.314 77.2184ZM108.866 78.7473V70.13H110.847L111.055 71.7457C111.368 71.1898 111.791 70.7496 112.324 70.4253C112.868 70.0894 113.505 69.9215 114.235 69.9215V72.2669H113.609C113.123 72.2669 112.688 72.3422 112.306 72.4928C111.924 72.6434 111.623 72.904 111.403 73.2746C111.194 73.6453 111.09 74.1607 111.09 74.8209V78.7473H108.866ZM119.563 78.9558C118.752 78.9558 118.028 78.7589 117.391 78.3651C116.754 77.9713 116.251 77.4327 115.88 76.7493C115.509 76.066 115.324 75.29 115.324 74.4213C115.324 73.5526 115.509 72.7824 115.88 72.1106C116.251 71.4272 116.754 70.8944 117.391 70.5122C118.028 70.1184 118.752 69.9215 119.563 69.9215C120.212 69.9215 120.779 70.0431 121.266 70.2863C121.752 70.5296 122.146 70.8713 122.447 71.3114V66.2383H124.671V78.7473H122.69L122.447 77.5138C122.169 77.896 121.798 78.2319 121.335 78.5215C120.883 78.811 120.293 78.9558 119.563 78.9558ZM120.032 77.0099C120.75 77.0099 121.335 76.7725 121.787 76.2976C122.25 75.8112 122.482 75.1915 122.482 74.4387C122.482 73.6858 122.25 73.0719 121.787 72.597C121.335 72.1106 120.75 71.8674 120.032 71.8674C119.326 71.8674 118.741 72.1048 118.277 72.5797C117.814 73.0545 117.582 73.6684 117.582 74.4213C117.582 75.1741 117.814 75.7938 118.277 76.2803C118.741 76.7667 119.326 77.0099 120.032 77.0099Z" fill="white"/>
<path d="M36.8176 177.094V168.32L35.1816 168.682V167.842L37.223 166.959H38.0482V177.094H36.8176ZM40.0282 177.094V176.239C40.7135 175.699 41.3602 175.154 41.9683 174.603C42.586 174.044 43.1314 173.493 43.6043 172.953C44.0869 172.412 44.4633 171.881 44.7336 171.36C45.0135 170.839 45.1535 170.337 45.1535 169.855C45.1535 169.497 45.0907 169.164 44.9652 168.856C44.8494 168.547 44.6564 168.301 44.3861 168.117C44.1159 167.924 43.7491 167.828 43.2858 167.828C42.8418 167.828 42.4702 167.929 42.171 168.132C41.8718 168.325 41.6449 168.585 41.4905 168.913C41.3457 169.242 41.2733 169.594 41.2733 169.97H40.1006C40.1006 169.304 40.2406 168.735 40.5205 168.262C40.8004 167.779 41.1816 167.413 41.6642 167.162C42.1469 166.911 42.6922 166.785 43.3003 166.785C44.1979 166.785 44.9315 167.041 45.5009 167.553C46.0801 168.054 46.3696 168.807 46.3696 169.811C46.3696 170.41 46.22 171.003 45.9208 171.592C45.6216 172.171 45.2403 172.736 44.777 173.286C44.3137 173.826 43.8167 174.333 43.2858 174.806C42.7646 175.279 42.2772 175.704 41.8235 176.08H46.7171V177.094H40.0282ZM51.629 177.267C50.9823 177.267 50.3984 177.151 49.8771 176.92C49.3559 176.679 48.9361 176.321 48.6176 175.848C48.3087 175.376 48.1446 174.787 48.1253 174.082H49.3559C49.3656 174.661 49.5683 175.163 49.964 175.588C50.3597 176.003 50.9147 176.21 51.629 176.21C52.3432 176.21 52.8789 176.013 53.236 175.617C53.6028 175.221 53.7862 174.743 53.7862 174.183C53.7862 173.711 53.6704 173.324 53.4387 173.025C53.2167 172.726 52.9127 172.504 52.5266 172.359C52.1502 172.214 51.7352 172.142 51.2815 172.142H50.5287V171.114H51.2815C51.9378 171.114 52.4494 170.965 52.8162 170.665C53.1926 170.366 53.3808 169.946 53.3808 169.406C53.3808 168.952 53.2312 168.58 52.932 168.291C52.6424 167.992 52.2081 167.842 51.629 167.842C51.0692 167.842 50.6203 168.011 50.2825 168.349C49.9447 168.677 49.7565 169.092 49.7179 169.594H48.4873C48.5162 169.044 48.661 168.556 48.9216 168.132C49.1918 167.707 49.5586 167.379 50.0219 167.147C50.4852 166.906 51.0209 166.785 51.629 166.785C52.2853 166.785 52.8307 166.901 53.265 167.133C53.709 167.364 54.042 167.673 54.264 168.059C54.4956 168.445 54.6115 168.87 54.6115 169.333C54.6115 169.845 54.4715 170.313 54.1916 170.738C53.9117 171.153 53.4918 171.433 52.932 171.577C53.5304 171.703 54.0275 171.988 54.4232 172.432C54.819 172.876 55.0168 173.46 55.0168 174.183C55.0168 174.743 54.8865 175.26 54.6259 175.733C54.375 176.196 53.9986 176.568 53.4967 176.847C52.9947 177.127 52.3722 177.267 51.629 177.267ZM61.5738 177.094V174.922H56.4341V173.981L61.3566 166.959H62.7755V173.85H64.2812V174.922H62.7755V177.094H61.5738ZM57.7806 173.85H61.6317V168.305L57.7806 173.85Z" fill="white"/>
<path d="M35.1816 220.528L38.9169 210.393H40.2055L43.9263 220.528H42.6378L41.7112 217.922H37.3967L36.4557 220.528H35.1816ZM37.7587 216.937H41.3492L39.554 211.928L37.7587 216.937ZM45.4329 220.528V210.393H48.705C49.4965 210.393 50.1431 210.523 50.645 210.784C51.1469 211.045 51.5186 211.402 51.7599 211.855C52.0012 212.309 52.1218 212.811 52.1218 213.361C52.1218 213.998 51.9481 214.572 51.6006 215.084C51.2628 215.596 50.7319 215.957 50.008 216.17L52.2231 220.528H50.7898L48.7339 216.344H48.6471H46.6491V220.528H45.4329ZM46.6491 215.388H48.6181C49.3999 215.388 49.9694 215.2 50.3265 214.823C50.6837 214.447 50.8622 213.964 50.8622 213.376C50.8622 212.777 50.6837 212.304 50.3265 211.957C49.9791 211.6 49.4048 211.421 48.6036 211.421H46.6491V215.388ZM61.0753 220.701C60.3321 220.701 59.6854 220.566 59.1353 220.296C58.5851 220.026 58.1604 219.649 57.8612 219.167C57.562 218.684 57.4124 218.124 57.4124 217.487H58.6865C58.6865 217.883 58.7782 218.25 58.9615 218.588C59.1449 218.916 59.4104 219.181 59.7578 219.384C60.115 219.577 60.5541 219.674 61.0753 219.674C61.7606 219.674 62.2915 219.509 62.6679 219.181C63.0444 218.853 63.2326 218.443 63.2326 217.951C63.2326 217.545 63.1457 217.222 62.972 216.981C62.7982 216.73 62.5617 216.527 62.2625 216.373C61.973 216.218 61.6352 216.083 61.2491 215.967C60.8726 215.851 60.4769 215.721 60.0619 215.576C59.2801 215.306 58.7009 214.973 58.3245 214.577C57.9481 214.172 57.7599 213.646 57.7599 212.999C57.7502 212.459 57.8757 211.981 58.1363 211.566C58.3969 211.141 58.7637 210.813 59.2366 210.581C59.7192 210.34 60.2887 210.219 60.945 210.219C61.5917 210.219 62.1515 210.34 62.6245 210.581C63.1071 210.823 63.4787 211.156 63.7393 211.58C64.0096 212.005 64.1495 212.488 64.1592 213.028H62.8851C62.8851 212.748 62.8127 212.473 62.6679 212.203C62.5231 211.923 62.3011 211.696 62.0019 211.522C61.7124 211.349 61.3456 211.262 60.9016 211.262C60.3514 211.252 59.8978 211.392 59.5407 211.682C59.1932 211.971 59.0195 212.372 59.0195 212.883C59.0195 213.318 59.1401 213.651 59.3814 213.882C59.6324 214.114 59.9798 214.307 60.4238 214.461C60.8678 214.606 61.3794 214.775 61.9585 214.968C62.4411 215.142 62.8754 215.345 63.2615 215.576C63.6476 215.808 63.9468 216.107 64.1592 216.474C64.3812 216.841 64.4922 217.309 64.4922 217.878C64.4922 218.361 64.3667 218.819 64.1157 219.254C63.8648 219.678 63.4835 220.026 62.972 220.296C62.4701 220.566 61.8378 220.701 61.0753 220.701ZM66.1445 220.528V210.104H67.3606V214.577C67.6019 214.133 67.9446 213.791 68.3886 213.549C68.8325 213.298 69.3152 213.173 69.8364 213.173C70.6664 213.173 71.3324 213.433 71.8343 213.955C72.3362 214.466 72.5872 215.258 72.5872 216.329V220.528H71.3855V216.459C71.3855 214.963 70.7823 214.215 69.5758 214.215C68.9484 214.215 68.4223 214.442 67.9976 214.896C67.573 215.34 67.3606 215.977 67.3606 216.807V220.528H66.1445ZM76.8186 220.701C76.2202 220.701 75.7231 220.6 75.3274 220.397C74.9316 220.195 74.6373 219.924 74.4442 219.587C74.2512 219.249 74.1547 218.882 74.1547 218.486C74.1547 217.753 74.4346 217.188 74.9944 216.792C75.5542 216.397 76.3167 216.199 77.2819 216.199H79.222V216.112C79.222 215.485 79.0579 215.012 78.7297 214.693C78.4016 214.365 77.9624 214.201 77.4122 214.201C76.9393 214.201 76.5291 214.321 76.1816 214.563C75.8438 214.794 75.6314 215.137 75.5446 215.591H74.2994C74.3477 215.069 74.5214 214.63 74.8207 214.273C75.1295 213.916 75.5108 213.646 75.9644 213.462C76.4181 213.269 76.9007 213.173 77.4122 213.173C78.416 213.173 79.1689 213.443 79.6708 213.984C80.1824 214.514 80.4381 215.224 80.4381 216.112V220.528H79.3523L79.2799 219.239C79.0772 219.645 78.778 219.992 78.3822 220.282C77.9962 220.561 77.475 220.701 76.8186 220.701ZM77.0068 219.674C77.4701 219.674 77.8659 219.553 78.194 219.312C78.5319 219.07 78.7876 218.757 78.9614 218.37C79.1351 217.984 79.222 217.579 79.222 217.154V217.14H77.3833C76.669 217.14 76.1623 217.265 75.8631 217.516C75.5735 217.758 75.4287 218.062 75.4287 218.428C75.4287 218.805 75.5639 219.109 75.8341 219.341C76.114 219.563 76.5049 219.674 77.0068 219.674ZM82.2626 220.528V210.104H83.4787V216.373L86.4178 213.347H87.909L84.7239 216.59L88.3144 220.528H86.7653L83.4787 216.807V220.528H82.2626ZM90.2965 211.754C90.0552 211.754 89.8525 211.677 89.6885 211.522C89.534 211.358 89.4568 211.156 89.4568 210.914C89.4568 210.683 89.534 210.49 89.6885 210.335C89.8525 210.181 90.0552 210.104 90.2965 210.104C90.5282 210.104 90.7261 210.181 90.8901 210.335C91.0542 210.49 91.1363 210.683 91.1363 210.914C91.1363 211.156 91.0542 211.358 90.8901 211.522C90.7261 211.677 90.5282 211.754 90.2965 211.754ZM89.6885 220.528V213.347H90.9046V220.528H89.6885ZM93.0221 220.528V213.347H94.1225L94.2238 214.722C94.4458 214.249 94.7836 213.873 95.2373 213.593C95.6909 213.313 96.2507 213.173 96.9167 213.173V214.447H96.5837C96.1591 214.447 95.7681 214.524 95.411 214.679C95.0539 214.823 94.7692 215.074 94.5568 215.431C94.3445 215.789 94.2383 216.281 94.2383 216.908V220.528H93.0221Z" fill="white"/>
<path d="M248.643 222.08V211.552L246.68 211.986V210.978L249.13 209.918H250.12V222.08H248.643ZM253.695 222.08L258.525 211.169H251.853V209.918H260.019V211.013L255.241 222.08H253.695ZM259.642 223.73L264.002 208.806H265.444L261.084 223.73H259.642ZM268.426 222.08V211.552L266.463 211.986V210.978L268.913 209.918H269.903V222.08H268.426ZM272.279 222.08V221.055C273.101 220.406 273.877 219.752 274.607 219.092C275.348 218.42 276.003 217.76 276.57 217.111C277.149 216.462 277.601 215.825 277.925 215.2C278.261 214.575 278.429 213.972 278.429 213.393C278.429 212.965 278.354 212.565 278.203 212.194C278.064 211.824 277.833 211.528 277.508 211.308C277.184 211.077 276.744 210.961 276.188 210.961C275.655 210.961 275.209 211.082 274.85 211.326C274.491 211.557 274.219 211.87 274.034 212.264C273.86 212.658 273.773 213.08 273.773 213.532H272.366C272.366 212.733 272.534 212.05 272.87 211.482C273.205 210.903 273.663 210.463 274.242 210.162C274.821 209.86 275.476 209.71 276.205 209.71C277.282 209.71 278.163 210.017 278.846 210.631C279.541 211.233 279.889 212.136 279.889 213.341C279.889 214.059 279.709 214.771 279.35 215.478C278.991 216.173 278.533 216.85 277.977 217.511C277.421 218.159 276.825 218.767 276.188 219.335C275.562 219.902 274.978 220.412 274.433 220.864H280.305V222.08H272.279Z" fill="white"/>
<circle cx="333.718" cy="214.49" r="10.8585" fill="#58B3FF"/>
<circle cx="317.792" cy="214.49" r="10.8585" fill="#4FBEFF"/>
<path d="M358.804 48.28V0.748901L327.518 13.9854V60.9149L358.804 48.28Z" fill="#F7FA62"/>
<defs>
<linearGradient id="paint0_linear_0_642" x1="189.662" y1="27" x2="189.662" y2="258.649" gradientUnits="userSpaceOnUse">
<stop stop-color="#2B00D4"/>
<stop offset="1" stop-color="#2100A2"/>
</linearGradient>
</defs>
</svg>
