<svg width="629" height="403" viewBox="0 0 629 403" fill="none" xmlns="http://www.w3.org/2000/svg">
<path d="M500.713 184.969V219.264H414.074M51.8749 0.861084V47.7905H1.33545V219.264H326.833M326.833 184.969V219.264M326.833 219.264H414.074M414.074 184.969V219.264" stroke="#838383" stroke-width="1.20332" stroke-dasharray="6.02 6.02"/>
<g filter="url(#filter0_dddddd_0_629)">
<rect x="296.149" y="122.998" width="62.5726" height="62.5726" fill="white"/>
</g>
<path d="M332.76 154.233C333.979 153.515 334.855 152.301 335.06 150.813C335.348 148.724 334.235 146.687 332.414 145.6L332.637 143.987C332.731 143.299 332.22 142.635 331.495 142.504C330.77 142.374 330.104 142.826 330.009 143.515L329.837 144.762L327.21 144.289L327.382 143.042C327.477 142.354 326.966 141.69 326.241 141.559C325.516 141.429 324.85 141.881 324.755 142.57L324.583 143.817L321.956 143.344C321.231 143.214 320.566 143.666 320.471 144.355C320.376 145.044 320.887 145.708 321.612 145.838L322.926 146.074L322.066 152.309L321.206 158.544L319.892 158.308C319.167 158.177 318.502 158.63 318.407 159.318C318.312 160.007 318.823 160.671 319.548 160.801L322.175 161.274L322.003 162.521C321.908 163.21 322.419 163.874 323.145 164.004C323.87 164.135 324.535 163.682 324.63 162.993L324.802 161.747L327.429 162.219L327.257 163.466C327.162 164.155 327.674 164.819 328.399 164.949C329.124 165.08 329.789 164.627 329.884 163.939L330.107 162.326C332.133 161.931 333.74 160.383 334.028 158.294C334.234 156.806 333.727 155.344 332.76 154.233ZM325.553 146.547L330.15 147.374C331.599 147.634 332.623 148.965 332.433 150.34C332.244 151.715 330.911 152.622 329.462 152.362L324.865 151.535L325.553 146.547ZM328.43 159.843L323.833 159.016L324.521 154.029L329.118 154.856C330.567 155.116 331.591 156.447 331.401 157.822C331.212 159.197 329.879 160.104 328.43 159.843Z" fill="#F9896B"/>
<g filter="url(#filter1_dddddd_0_629)">
<rect x="382.788" y="122.998" width="62.5726" height="62.5726" fill="white"/>
</g>
<path d="M426.96 155.724C425.418 161.919 419.777 166.327 413.132 166.327C406.457 166.327 400.864 161.658 399.385 155.438C401.163 155.438 402.825 155.446 403.597 155.446C403.961 155.446 404.032 155.452 404.053 155.451C404.634 155.422 405.362 155.23 405.846 154.052L407.692 149.224L411.791 159.094C412.16 159.881 412.775 159.825 413.142 159.825H413.177C413.893 159.825 414.204 159.574 414.477 159.055L419.107 149.298L420.687 153.695L420.783 153.908C421.117 154.641 421.357 155.364 422.184 155.459C422.354 155.478 424.333 155.444 427 155.444C427 155.444 427 155.461 426.96 155.724Z" fill="#3DB5E6"/>
<path d="M427.413 152.075C427.413 152.149 427.413 152.334 427.412 152.334H427.409H423.151L420.668 145.396C420.446 144.88 420.114 144.107 419.145 144.107C418.552 144.107 418.017 144.596 417.713 145.404L413.21 155.833L408.876 145.467C408.452 144.546 408.159 144.113 407.31 144.113C406.734 144.113 406.311 144.326 405.851 145.416L403.278 152.437L399.005 152.433C399.001 152.326 399 152.219 399 152.113C399 144.308 405.327 138 413.132 138C420.937 138 427.413 144.271 427.413 152.075Z" fill="#D8292F"/>
<g filter="url(#filter2_dddddd_0_629)">
<rect x="469.427" y="122.998" width="62.5726" height="62.5726" fill="white"/>
</g>
<path d="M488.843 157.705C487.815 157.707 486.864 157.155 486.356 156.261C485.855 155.372 485.885 154.28 486.434 153.42L491.557 145.375C492.09 144.495 493.057 143.97 494.085 144.001C495.114 144.026 496.049 144.603 496.533 145.51C497.01 146.413 496.951 147.499 496.379 148.347L491.259 156.391C490.732 157.213 489.82 157.709 488.843 157.705Z" fill="#F62B54"/>
<path d="M497.63 157.704C496.597 157.704 495.646 157.152 495.147 156.264C494.647 155.378 494.677 154.288 495.225 153.43L500.338 145.404C500.864 144.512 501.833 143.974 502.869 144.001C503.911 144.024 504.855 144.607 505.333 145.518C505.807 146.43 505.737 147.523 505.148 148.368L500.036 156.394C499.51 157.213 498.603 157.707 497.63 157.704Z" fill="#FFCC00"/>
<path d="M506.22 157.772C507.677 157.772 508.858 156.616 508.858 155.19C508.858 153.764 507.677 152.609 506.22 152.609C504.764 152.609 503.583 153.764 503.583 155.19C503.583 156.616 504.764 157.772 506.22 157.772Z" fill="#00CA72"/>
<defs>
<filter id="filter0_dddddd_0_629" x="199.883" y="121.438" width="255.104" height="280.73" filterUnits="userSpaceOnUse" color-interpolation-filters="sRGB">
<feFlood flood-opacity="0" result="BackgroundImageFix"/>
<feColorMatrix in="SourceAlpha" type="matrix" values="0 0 0 0 0 0 0 0 0 0 0 0 0 0 0 0 0 0 127 0" result="hardAlpha"/>
<feOffset dy="2.22837"/>
<feGaussianBlur stdDeviation="1.89411"/>
<feColorMatrix type="matrix" values="0 0 0 0 0 0 0 0 0 0 0 0 0 0 0 0 0 0 0.01 0"/>
<feBlend mode="normal" in2="BackgroundImageFix" result="effect1_dropShadow_0_629"/>
<feColorMatrix in="SourceAlpha" type="matrix" values="0 0 0 0 0 0 0 0 0 0 0 0 0 0 0 0 0 0 127 0" result="hardAlpha"/>
<feOffset dy="9.80483"/>
<feGaussianBlur stdDeviation="3.92193"/>
<feColorMatrix type="matrix" values="0 0 0 0 0 0 0 0 0 0 0 0 0 0 0 0 0 0 0.0117778 0"/>
<feBlend mode="normal" in2="effect1_dropShadow_0_629" result="effect2_dropShadow_0_629"/>
<feColorMatrix in="SourceAlpha" type="matrix" values="0 0 0 0 0 0 0 0 0 0 0 0 0 0 0 0 0 0 127 0" result="hardAlpha"/>
<feOffset dy="24.0664"/>
<feGaussianBlur stdDeviation="7.82158"/>
<feColorMatrix type="matrix" values="0 0 0 0 0 0 0 0 0 0 0 0 0 0 0 0 0 0 0.015 0"/>
<feBlend mode="normal" in2="effect2_dropShadow_0_629" result="effect3_dropShadow_0_629"/>
<feColorMatrix in="SourceAlpha" type="matrix" values="0 0 0 0 0 0 0 0 0 0 0 0 0 0 0 0 0 0 127 0" result="hardAlpha"/>
<feOffset dy="46.3501"/>
<feGaussianBlur stdDeviation="15.3312"/>
<feColorMatrix type="matrix" values="0 0 0 0 0 0 0 0 0 0 0 0 0 0 0 0 0 0 0.0182222 0"/>
<feBlend mode="normal" in2="effect3_dropShadow_0_629" result="effect4_dropShadow_0_629"/>
<feColorMatrix in="SourceAlpha" type="matrix" values="0 0 0 0 0 0 0 0 0 0 0 0 0 0 0 0 0 0 127 0" result="hardAlpha"/>
<feOffset dy="77.9929"/>
<feGaussianBlur stdDeviation="28.1889"/>
<feColorMatrix type="matrix" values="0 0 0 0 0 0 0 0 0 0 0 0 0 0 0 0 0 0 0.0227778 0"/>
<feBlend mode="normal" in2="effect4_dropShadow_0_629" result="effect5_dropShadow_0_629"/>
<feColorMatrix in="SourceAlpha" type="matrix" values="0 0 0 0 0 0 0 0 0 0 0 0 0 0 0 0 0 0 127 0" result="hardAlpha"/>
<feOffset dy="120.332"/>
<feGaussianBlur stdDeviation="48.1328"/>
<feColorMatrix type="matrix" values="0 0 0 0 0 0 0 0 0 0 0 0 0 0 0 0 0 0 0.03 0"/>
<feBlend mode="normal" in2="effect5_dropShadow_0_629" result="effect6_dropShadow_0_629"/>
<feBlend mode="normal" in="SourceGraphic" in2="effect6_dropShadow_0_629" result="shape"/>
</filter>
<filter id="filter1_dddddd_0_629" x="286.522" y="121.438" width="255.104" height="280.73" filterUnits="userSpaceOnUse" color-interpolation-filters="sRGB">
<feFlood flood-opacity="0" result="BackgroundImageFix"/>
<feColorMatrix in="SourceAlpha" type="matrix" values="0 0 0 0 0 0 0 0 0 0 0 0 0 0 0 0 0 0 127 0" result="hardAlpha"/>
<feOffset dy="2.22837"/>
<feGaussianBlur stdDeviation="1.89411"/>
<feColorMatrix type="matrix" values="0 0 0 0 0 0 0 0 0 0 0 0 0 0 0 0 0 0 0.01 0"/>
<feBlend mode="normal" in2="BackgroundImageFix" result="effect1_dropShadow_0_629"/>
<feColorMatrix in="SourceAlpha" type="matrix" values="0 0 0 0 0 0 0 0 0 0 0 0 0 0 0 0 0 0 127 0" result="hardAlpha"/>
<feOffset dy="9.80483"/>
<feGaussianBlur stdDeviation="3.92193"/>
<feColorMatrix type="matrix" values="0 0 0 0 0 0 0 0 0 0 0 0 0 0 0 0 0 0 0.0117778 0"/>
<feBlend mode="normal" in2="effect1_dropShadow_0_629" result="effect2_dropShadow_0_629"/>
<feColorMatrix in="SourceAlpha" type="matrix" values="0 0 0 0 0 0 0 0 0 0 0 0 0 0 0 0 0 0 127 0" result="hardAlpha"/>
<feOffset dy="24.0664"/>
<feGaussianBlur stdDeviation="7.82158"/>
<feColorMatrix type="matrix" values="0 0 0 0 0 0 0 0 0 0 0 0 0 0 0 0 0 0 0.015 0"/>
<feBlend mode="normal" in2="effect2_dropShadow_0_629" result="effect3_dropShadow_0_629"/>
<feColorMatrix in="SourceAlpha" type="matrix" values="0 0 0 0 0 0 0 0 0 0 0 0 0 0 0 0 0 0 127 0" result="hardAlpha"/>
<feOffset dy="46.3501"/>
<feGaussianBlur stdDeviation="15.3312"/>
<feColorMatrix type="matrix" values="0 0 0 0 0 0 0 0 0 0 0 0 0 0 0 0 0 0 0.0182222 0"/>
<feBlend mode="normal" in2="effect3_dropShadow_0_629" result="effect4_dropShadow_0_629"/>
<feColorMatrix in="SourceAlpha" type="matrix" values="0 0 0 0 0 0 0 0 0 0 0 0 0 0 0 0 0 0 127 0" result="hardAlpha"/>
<feOffset dy="77.9929"/>
<feGaussianBlur stdDeviation="28.1889"/>
<feColorMatrix type="matrix" values="0 0 0 0 0 0 0 0 0 0 0 0 0 0 0 0 0 0 0.0227778 0"/>
<feBlend mode="normal" in2="effect4_dropShadow_0_629" result="effect5_dropShadow_0_629"/>
<feColorMatrix in="SourceAlpha" type="matrix" values="0 0 0 0 0 0 0 0 0 0 0 0 0 0 0 0 0 0 127 0" result="hardAlpha"/>
<feOffset dy="120.332"/>
<feGaussianBlur stdDeviation="48.1328"/>
<feColorMatrix type="matrix" values="0 0 0 0 0 0 0 0 0 0 0 0 0 0 0 0 0 0 0.03 0"/>
<feBlend mode="normal" in2="effect5_dropShadow_0_629" result="effect6_dropShadow_0_629"/>
<feBlend mode="normal" in="SourceGraphic" in2="effect6_dropShadow_0_629" result="shape"/>
</filter>
<filter id="filter2_dddddd_0_629" x="373.162" y="121.438" width="255.104" height="280.73" filterUnits="userSpaceOnUse" color-interpolation-filters="sRGB">
<feFlood flood-opacity="0" result="BackgroundImageFix"/>
<feColorMatrix in="SourceAlpha" type="matrix" values="0 0 0 0 0 0 0 0 0 0 0 0 0 0 0 0 0 0 127 0" result="hardAlpha"/>
<feOffset dy="2.22837"/>
<feGaussianBlur stdDeviation="1.89411"/>
<feColorMatrix type="matrix" values="0 0 0 0 0 0 0 0 0 0 0 0 0 0 0 0 0 0 0.01 0"/>
<feBlend mode="normal" in2="BackgroundImageFix" result="effect1_dropShadow_0_629"/>
<feColorMatrix in="SourceAlpha" type="matrix" values="0 0 0 0 0 0 0 0 0 0 0 0 0 0 0 0 0 0 127 0" result="hardAlpha"/>
<feOffset dy="9.80483"/>
<feGaussianBlur stdDeviation="3.92193"/>
<feColorMatrix type="matrix" values="0 0 0 0 0 0 0 0 0 0 0 0 0 0 0 0 0 0 0.0117778 0"/>
<feBlend mode="normal" in2="effect1_dropShadow_0_629" result="effect2_dropShadow_0_629"/>
<feColorMatrix in="SourceAlpha" type="matrix" values="0 0 0 0 0 0 0 0 0 0 0 0 0 0 0 0 0 0 127 0" result="hardAlpha"/>
<feOffset dy="24.0664"/>
<feGaussianBlur stdDeviation="7.82158"/>
<feColorMatrix type="matrix" values="0 0 0 0 0 0 0 0 0 0 0 0 0 0 0 0 0 0 0.015 0"/>
<feBlend mode="normal" in2="effect2_dropShadow_0_629" result="effect3_dropShadow_0_629"/>
<feColorMatrix in="SourceAlpha" type="matrix" values="0 0 0 0 0 0 0 0 0 0 0 0 0 0 0 0 0 0 127 0" result="hardAlpha"/>
<feOffset dy="46.3501"/>
<feGaussianBlur stdDeviation="15.3312"/>
<feColorMatrix type="matrix" values="0 0 0 0 0 0 0 0 0 0 0 0 0 0 0 0 0 0 0.0182222 0"/>
<feBlend mode="normal" in2="effect3_dropShadow_0_629" result="effect4_dropShadow_0_629"/>
<feColorMatrix in="SourceAlpha" type="matrix" values="0 0 0 0 0 0 0 0 0 0 0 0 0 0 0 0 0 0 127 0" result="hardAlpha"/>
<feOffset dy="77.9929"/>
<feGaussianBlur stdDeviation="28.1889"/>
<feColorMatrix type="matrix" values="0 0 0 0 0 0 0 0 0 0 0 0 0 0 0 0 0 0 0.0227778 0"/>
<feBlend mode="normal" in2="effect4_dropShadow_0_629" result="effect5_dropShadow_0_629"/>
<feColorMatrix in="SourceAlpha" type="matrix" values="0 0 0 0 0 0 0 0 0 0 0 0 0 0 0 0 0 0 127 0" result="hardAlpha"/>
<feOffset dy="120.332"/>
<feGaussianBlur stdDeviation="48.1328"/>
<feColorMatrix type="matrix" values="0 0 0 0 0 0 0 0 0 0 0 0 0 0 0 0 0 0 0.03 0"/>
<feBlend mode="normal" in2="effect5_dropShadow_0_629" result="effect6_dropShadow_0_629"/>
<feBlend mode="normal" in="SourceGraphic" in2="effect6_dropShadow_0_629" result="shape"/>
</filter>
</defs>
</svg>
