<svg width="60" height="60" viewBox="0 0 60 60" fill="none" xmlns="http://www.w3.org/2000/svg">
<rect width="60" height="60" rx="5" fill="#EBECE8"/>
<g clip-path="url(#clip0_414_364)">
<path fill-rule="evenodd" clip-rule="evenodd" d="M39.3338 17.3338C38.2288 17.3338 37.3338 18.2288 37.3338 19.3338C37.3338 20.4375 38.2288 21.3338 39.3338 21.3338C40.4375 21.3338 41.3338 20.4375 41.3338 19.3338C41.3338 18.2288 40.4375 17.3338 39.3338 17.3338ZM39.3338 18.6663C39.7013 18.6663 40 18.9651 40 19.3338C40 19.7013 39.7013 20 39.3338 20C38.9651 20 38.6663 19.7013 38.6663 19.3338C38.6663 18.9651 38.9651 18.6663 39.3338 18.6663Z" fill="black"/>
<path fill-rule="evenodd" clip-rule="evenodd" d="M39.3338 28C38.2288 28 37.3338 28.8963 37.3338 30C37.3338 31.1037 38.2288 32 39.3338 32C40.4375 32 41.3338 31.1037 41.3338 30C41.3338 28.8963 40.4375 28 39.3338 28ZM39.3338 29.3338C39.7013 29.3338 40 29.6325 40 30C40 30.3675 39.7013 30.6662 39.3338 30.6662C38.9651 30.6662 38.6663 30.3675 38.6663 30C38.6663 29.6325 38.9651 29.3338 39.3338 29.3338Z" fill="black"/>
<path fill-rule="evenodd" clip-rule="evenodd" d="M39.3338 38.6663C38.2288 38.6663 37.3338 39.5625 37.3338 40.6663C37.3338 41.7713 38.2288 42.6663 39.3338 42.6663C40.4375 42.6663 41.3338 41.7713 41.3338 40.6663C41.3338 39.5625 40.4375 38.6663 39.3338 38.6663ZM39.3338 40C39.7013 40 40 40.2988 40 40.6663C40 41.035 39.7013 41.3337 39.3338 41.3337C38.9651 41.3337 38.6663 41.035 38.6663 40.6663C38.6663 40.2988 38.9651 40 39.3338 40Z" fill="black"/>
<path fill-rule="evenodd" clip-rule="evenodd" d="M34 17.3338C32.8963 17.3338 32 18.2288 32 19.3338C32 20.4375 32.8963 21.3338 34 21.3338C35.1037 21.3338 36 20.4375 36 19.3338C36 18.2288 35.1037 17.3338 34 17.3338ZM34 18.6663C34.3675 18.6663 34.6662 18.9651 34.6662 19.3338C34.6662 19.7013 34.3675 20 34 20C33.6325 20 33.3338 19.7013 33.3338 19.3338C33.3338 18.9651 33.6325 18.6663 34 18.6663Z" fill="black"/>
<path fill-rule="evenodd" clip-rule="evenodd" d="M34 28C32.8963 28 32 28.8963 32 30C32 31.1037 32.8963 32 34 32C35.1037 32 36 31.1037 36 30C36 28.8963 35.1037 28 34 28ZM34 29.3338C34.3675 29.3338 34.6662 29.6325 34.6662 30C34.6662 30.3675 34.3675 30.6662 34 30.6662C33.6325 30.6662 33.3338 30.3675 33.3338 30C33.3338 29.6325 33.6325 29.3338 34 29.3338Z" fill="black"/>
<path fill-rule="evenodd" clip-rule="evenodd" d="M34 38.6663C32.8963 38.6663 32 39.5625 32 40.6663C32 41.7713 32.8963 42.6663 34 42.6663C35.1037 42.6663 36 41.7713 36 40.6663C36 39.5625 35.1037 38.6663 34 38.6663ZM34 40C34.3675 40 34.6662 40.2988 34.6662 40.6663C34.6662 41.035 34.3675 41.3337 34 41.3337C33.6325 41.3337 33.3338 41.035 33.3338 40.6663C33.3338 40.2988 33.6325 40 34 40Z" fill="black"/>
<path fill-rule="evenodd" clip-rule="evenodd" d="M18 18.6663H27.3338C27.7013 18.6663 28 18.3675 28 18C28 17.6326 27.7013 17.3338 27.3338 17.3338H18C17.6326 17.3338 17.3338 17.6326 17.3338 18C17.3338 18.3675 17.6326 18.6663 18 18.6663Z" fill="black"/>
<path fill-rule="evenodd" clip-rule="evenodd" d="M18 29.3338H27.3338C27.7013 29.3338 28 29.035 28 28.6663C28 28.2988 27.7013 28.0001 27.3338 28.0001H18C17.6326 28.0001 17.3338 28.2988 17.3338 28.6663C17.3338 29.035 17.6326 29.3338 18 29.3338Z" fill="black"/>
<path fill-rule="evenodd" clip-rule="evenodd" d="M18 40H27.3338C27.7013 40 28 39.7012 28 39.3337C28 38.965 27.7013 38.6663 27.3338 38.6663H18C17.6326 38.6663 17.3338 38.965 17.3338 39.3337C17.3338 39.7012 17.6326 40 18 40Z" fill="black"/>
<path fill-rule="evenodd" clip-rule="evenodd" d="M18 21.3338H27.3338C27.7013 21.3338 28 21.035 28 20.6663C28 20.2988 27.7013 20.0001 27.3338 20.0001H18C17.6326 20.0001 17.3338 20.2988 17.3338 20.6663C17.3338 21.035 17.6326 21.3338 18 21.3338Z" fill="black"/>
<path fill-rule="evenodd" clip-rule="evenodd" d="M18 32H27.3338C27.7013 32 28 31.7013 28 31.3338C28 30.9651 27.7013 30.6663 27.3338 30.6663H18C17.6326 30.6663 17.3338 30.9651 17.3338 31.3338C17.3338 31.7013 17.6326 32 18 32Z" fill="black"/>
<path fill-rule="evenodd" clip-rule="evenodd" d="M18 42.6663H27.3338C27.7013 42.6663 28 42.3675 28 42C28 41.6326 27.7013 41.3338 27.3338 41.3338H18C17.6326 41.3338 17.3338 41.6326 17.3338 42C17.3338 42.3675 17.6326 42.6663 18 42.6663Z" fill="black"/>
<path fill-rule="evenodd" clip-rule="evenodd" d="M17.3338 23.9325V25.4012C16.6975 25.5312 16.1088 25.8437 15.6425 26.3087C15.0175 26.935 14.6663 27.7825 14.6663 28.6662V31.3337C14.6663 32.2175 15.0175 33.065 15.6425 33.6912C16.1088 34.1562 16.6975 34.4687 17.3338 34.5987V36.0674C16.6975 36.1974 16.1088 36.5112 15.6425 36.9762C15.0175 37.6012 14.6663 38.4487 14.6663 39.3337V41.9999C14.6663 42.8837 15.0175 43.7324 15.6425 44.3574C16.2675 44.9824 17.1163 45.3337 18 45.3337H42C42.8838 45.3337 43.7325 44.9824 44.3575 44.3574C44.9825 43.7324 45.3338 42.8837 45.3338 41.9999V39.3337C45.3338 38.4487 44.9825 37.6012 44.3575 36.9762C43.8913 36.5112 43.3025 36.1974 42.6663 36.0674V34.5987C43.3025 34.4687 43.8912 34.1562 44.3575 33.6912C44.9825 33.065 45.3338 32.2175 45.3338 31.3337V28.6662C45.3338 27.7825 44.9825 26.935 44.3575 26.3087C43.8913 25.8437 43.3025 25.5312 42.6663 25.4012V23.9325C43.3025 23.8025 43.8912 23.4888 44.3575 23.0238C44.9825 22.3988 45.3338 21.5513 45.3338 20.6663V18C45.3338 17.1163 44.9825 16.2675 44.3575 15.6425C43.7325 15.0175 42.8838 14.6663 42 14.6663H18C17.1163 14.6663 16.2675 15.0175 15.6425 15.6425C15.0175 16.2675 14.6663 17.1163 14.6663 18V20.6663C14.6663 21.5513 15.0175 22.3988 15.6425 23.0238C16.1088 23.4888 16.6975 23.8025 17.3338 23.9325ZM44 39.3338V42C44 42.5313 43.7888 43.0388 43.4138 43.4138C43.0388 43.7888 42.5313 44 42 44H18C17.4688 44 16.9613 43.7888 16.5863 43.4138C16.2113 43.0388 16 42.5313 16 42V39.3338C16 38.8025 16.2113 38.2938 16.5863 37.9188C16.9612 37.5438 17.4688 37.3338 18 37.3338H42C42.5313 37.3338 43.0388 37.5438 43.4138 37.9188C43.7888 38.2938 44 38.8025 44 39.3338ZM18.6663 36H41.3338V34.6663H18.6663V36ZM42 26.6663C42.5313 26.6663 43.0388 26.8775 43.4138 27.2525C43.7888 27.6275 44 28.1362 44 28.6663V31.3337C44 31.8637 43.7888 32.3725 43.4138 32.7475C43.0388 33.1225 42.5313 33.3337 42 33.3337H18C17.4688 33.3337 16.9613 33.1225 16.5863 32.7475C16.2113 32.3725 16 31.8638 16 31.3337V28.6663C16 28.1363 16.2113 27.6275 16.5863 27.2525C16.9613 26.8775 17.4688 26.6663 18 26.6663H42ZM18.6663 24V25.3338H41.3338V24H18.6663ZM42 22.6663H18C17.4688 22.6663 16.9613 22.4563 16.5863 22.0813C16.2113 21.7063 16 21.1975 16 20.6663V18C16 17.4688 16.2113 16.9613 16.5863 16.5863C16.9612 16.2113 17.4688 16 18 16H42C42.5313 16 43.0388 16.2113 43.4138 16.5863C43.7888 16.9612 44 17.4688 44 18V20.6663C44 21.1975 43.7888 21.7063 43.4138 22.0813C43.0388 22.4563 42.5313 22.6663 42 22.6663Z" fill="black"/>
</g>
<defs>
<clipPath id="clip0_414_364">
<rect width="32" height="32" fill="white" transform="translate(14 14)"/>
</clipPath>
</defs>
</svg>
