<svg width="60" height="60" viewBox="0 0 60 60" fill="none" xmlns="http://www.w3.org/2000/svg">
<rect width="60" height="60" rx="5" fill="#EBECE8"/>
<path d="M22.9936 16.7275C22.8611 16.7275 22.7336 16.78 22.6411 16.875C22.5474 16.9687 22.4949 17.0962 22.4949 17.2287V23.7286H15.9985C15.866 23.7286 15.7373 23.7811 15.6435 23.8748C15.5498 23.9698 15.496 24.0973 15.4973 24.2311V26.9623C15.496 27.0948 15.5498 27.2236 15.6435 27.3174C15.7373 27.4124 15.866 27.4649 15.9985 27.4636H16.7185V42.2722H16.011H15.9623C15.691 42.2922 15.4848 42.5247 15.4973 42.796C15.5111 43.0672 15.7386 43.2797 16.0111 43.2722H43.9922H43.9909C44.1259 43.276 44.2559 43.2247 44.3522 43.1297C44.4484 43.036 44.5022 42.9072 44.5022 42.7722C44.5022 42.6385 44.4484 42.5097 44.3522 42.4147C44.2559 42.321 44.1259 42.2697 43.9909 42.2722H43.261V27.4636H43.981C44.256 27.4636 44.4797 27.2386 44.4785 26.9624V24.2311C44.4797 23.9548 44.256 23.7298 43.981 23.7286H37.4846V17.2288C37.4846 16.9525 37.2621 16.7275 36.9859 16.7275L22.9936 16.7275ZM23.4961 17.7287L36.4849 17.7275V42.2712L32.3688 42.2724V37.5812C32.3688 37.305 32.1438 37.0825 31.8675 37.0837H28.1101C27.8351 37.085 27.6126 37.3062 27.6113 37.5812V42.2724H23.4964L23.4961 17.7287ZM25.4524 19.54C25.3186 19.5387 25.1911 19.5912 25.0961 19.6862C25.0024 19.78 24.9499 19.9087 24.9499 20.0412V23.335C24.9511 23.61 25.1761 23.8338 25.4524 23.8325H28.686C28.961 23.8338 29.186 23.61 29.1872 23.335V20.0412C29.1885 19.9087 29.1347 19.78 29.041 19.6862C28.9472 19.5912 28.8185 19.5387 28.6859 19.54H25.4524ZM31.2911 19.54C31.0148 19.54 30.7923 19.765 30.7936 20.0412V23.335C30.7936 23.6087 31.0161 23.8313 31.2911 23.8325H34.5285C34.8023 23.8313 35.0248 23.6088 35.026 23.335V20.0412C35.0273 19.765 34.8048 19.54 34.5285 19.54H31.2911ZM25.95 20.5412H28.1862V22.8338L25.95 22.8325V20.5412ZM31.7925 20.5412H34.0263V22.8338L31.7938 22.8325L31.7925 20.5412ZM16.4975 24.73H22.4949V26.465L16.4988 26.4638L16.4975 24.73ZM37.4837 24.73H43.4773V26.465H37.4825L37.4837 24.73ZM25.4511 25.3838L25.4523 25.3825C25.3186 25.3813 25.1911 25.435 25.0961 25.5288C25.0023 25.6225 24.9498 25.7513 24.9498 25.8838V29.1776C24.9511 29.4538 25.1761 29.6763 25.4523 29.6751H28.6859C28.9609 29.6763 29.1859 29.4538 29.1872 29.1776V25.8838C29.1884 25.7513 29.1347 25.6226 29.0409 25.5288C28.9472 25.435 28.8184 25.3813 28.6859 25.3825L25.4511 25.3838ZM31.2898 25.3838L31.2911 25.3825C31.0148 25.3838 30.7923 25.6076 30.7936 25.8838V29.1776C30.7936 29.4513 31.0161 29.6738 31.2911 29.6751H34.5285C34.8022 29.6738 35.0248 29.4513 35.026 29.1776V25.8838C35.0273 25.6075 34.8048 25.3838 34.5285 25.3825L31.2898 25.3838ZM25.9487 26.385L28.1862 26.3838V28.6788H25.9499L25.9487 26.385ZM31.7912 26.385H34.025L34.0263 28.6788H31.7937L31.7912 26.385ZM17.7176 27.4663L22.4952 27.4638V42.2724H17.7202L17.7176 27.4663ZM37.4828 27.4663H42.2591L42.2616 42.2727H37.4853L37.4828 27.4663ZM25.4002 31.2289C25.1452 31.2551 24.9502 31.4701 24.9502 31.7276V35.0201C24.9502 35.1538 25.0027 35.2813 25.0965 35.3751C25.1915 35.4701 25.319 35.5226 25.4527 35.5226H28.6863C28.8188 35.5226 28.9476 35.4701 29.0413 35.3751C29.1351 35.2813 29.1888 35.1538 29.1876 35.0201V31.7276C29.1863 31.4514 28.9613 31.2276 28.6863 31.2289H25.4527C25.4352 31.2276 25.4177 31.2276 25.4002 31.2289H25.4002ZM31.2428 31.2289H31.244C30.9878 31.2551 30.7928 31.4701 30.794 31.7276V35.0201C30.7928 35.2963 31.0153 35.5213 31.2915 35.5226H34.529C34.8052 35.5213 35.0277 35.2963 35.0265 35.0201V31.7276C35.0252 31.4526 34.8027 31.2301 34.529 31.2289H31.2915H31.244H31.2428ZM25.9503 32.2289H28.1865V34.5214L25.9503 34.5226V32.2289ZM31.7928 32.2289H34.0266V34.5214L31.7941 34.5226L31.7928 32.2289ZM28.6116 38.0839H31.3679V42.274L28.6116 42.2727V38.0839Z" fill="black"/>
</svg>
