<svg width="60" height="60" viewBox="0 0 60 60" fill="none" xmlns="http://www.w3.org/2000/svg">
<rect width="60" height="60" rx="5" fill="#EBECE8"/>
<path d="M33.7525 40.4857C34.033 41.0765 33.7837 41.7816 33.1943 42.0651C32.2532 42.5178 31.2602 42.8533 30.2375 43.0626H29.7625C19.5025 40.9844 18.4457 28.8126 19.3125 22.709C19.3526 22.378 19.5292 22.0782 19.7993 21.8837C20.071 21.6907 20.4109 21.618 20.7375 21.6878C22.2753 21.9624 23.8576 21.8184 25.3199 21.2706C26.782 20.7244 28.0705 19.7937 29.0501 18.5765C29.2787 18.2871 29.6305 18.1193 30.0001 18.1253C30.3742 18.1253 30.726 18.3019 30.9501 18.6003C31.9328 19.8115 33.2227 20.7363 34.6848 21.2796C36.1469 21.8229 37.7278 21.9639 39.2627 21.6878C39.5893 21.618 39.9292 21.6907 40.2008 21.8837C40.471 22.0782 40.6476 22.378 40.6877 22.709C41.0499 25.7564 40.9385 28.8411 40.3552 31.8526C40.2246 32.5087 39.5863 32.9332 38.9302 32.8026C38.2741 32.6719 37.8495 32.0337 37.9802 31.3776C38.4285 29.0308 38.568 26.6352 38.3958 24.2526C35.2697 24.4485 32.2106 23.2892 30.0001 21.0701C27.7661 23.2818 24.6934 24.4307 21.5569 24.2288C21.2719 27.8745 21.2125 38.7163 30.0001 40.6874C30.7497 40.5256 31.4785 40.2777 32.1733 39.9511C32.7566 39.6676 33.4602 39.9051 33.7526 40.4855L33.7525 40.4857ZM42.16 31.544L36.0564 37.6954L33.3252 34.0379C32.9318 33.5139 32.1867 33.407 31.6627 33.8004C31.1387 34.1938 31.0318 34.9389 31.4252 35.4629L34.9877 40.2129C35.194 40.489 35.5102 40.6627 35.8545 40.6879H35.9377C36.2553 40.6864 36.5581 40.5588 36.7808 40.3316L43.9058 33.2066C44.3674 32.7405 44.366 31.988 43.8999 31.5263C43.4338 31.0647 42.6812 31.0662 42.2195 31.5323L42.16 31.544Z" fill="black"/>
</svg>
